<?xml version="1.0" standalone="no"?>
<!DOCTYPE svg PUBLIC "-//W3C//DTD SVG 20010904//EN"
 "http://www.w3.org/TR/2001/REC-SVG-20010904/DTD/svg10.dtd">
<svg version="1.0" xmlns="http://www.w3.org/2000/svg"
 width="96.000000pt" height="96.000000pt" viewBox="0 0 96.000000 96.000000"
 preserveAspectRatio="xMidYMid meet">
<metadata>
Created by potrace 1.14, written by Peter Selinger 2001-2017
</metadata>
<g transform="translate(0.000000,96.000000) scale(0.100000,-0.100000)"
fill="#000000" stroke="none">
<path d="M460 901 c0 -5 -13 -14 -29 -21 -24 -9 -34 -9 -57 3 -27 14 -29 13
-49 -17 -18 -26 -27 -31 -63 -31 -37 0 -42 -3 -42 -23 0 -30 -42 -72 -72 -72
-20 0 -23 -5 -23 -42 0 -36 -5 -45 -31 -63 -29 -20 -31 -23 -18 -46 20 -35 17
-55 -11 -84 l-26 -25 26 -25 c28 -29 29 -38 11 -80 -12 -28 -11 -31 18 -50 26
-18 31 -27 31 -63 0 -38 2 -42 25 -42 22 0 19 -5 -33 -58 l-58 -59 20 -24 20
-24 58 58 59 57 79 -40 c123 -63 240 -65 362 -8 66 31 148 115 181 185 35 76
36 84 36 184 0 75 -4 93 -32 150 -17 35 -37 72 -44 81 -11 15 -5 25 45 76 l58
59 -20 24 -20 24 -60 -60 c-55 -54 -61 -57 -61 -35 0 23 -4 25 -42 25 -36 0
-45 5 -63 31 -20 30 -22 31 -49 17 -23 -12 -33 -12 -57 -3 -16 7 -29 16 -29
21 0 5 -9 9 -20 9 -11 0 -20 -4 -20 -9z"/>
</g>
</svg>
